<svg xmlns="http://www.w3.org/2000/svg" width="32" height="32" viewBox="0 0 32 32" fill="none">
  <!-- Background -->
  <rect width="32" height="32" rx="4" fill="#dc2626"/>
  
  <!-- Chef hat main body -->
  <path d="M6 18.5A5.3 5.3 0 0 1 7.87 8a6.8 6.8 0 0 1 1.4-2.05 6.6 6.6 0 0 1 9.46 0A6.8 6.8 0 0 1 22.13 8 5.3 5.3 0 0 1 24 18.5V28H6Z" fill="white"/>
  
  <!-- Chef hat band -->
  <rect x="6" y="22" width="18" height="2" fill="#dc2626"/>
  
  <!-- Chef hat pleats for detail -->
  <line x1="10" y1="12" x2="10" y2="20" stroke="#f1f5f9" stroke-width="0.8"/>
  <line x1="13" y1="10" x2="13" y2="20" stroke="#f1f5f9" stroke-width="0.8"/>
  <line x1="16" y1="11" x2="16" y2="20" stroke="#f1f5f9" stroke-width="0.8"/>
  <line x1="19" y1="11" x2="19" y2="20" stroke="#f1f5f9" stroke-width="0.8"/>
  <line x1="22" y1="13" x2="22" y2="20" stroke="#f1f5f9" stroke-width="0.8"/>
</svg> 