<svg xmlns="http://www.w3.org/2000/svg" width="32" height="32" viewBox="0 0 32 32" fill="none">
  <!-- Background circle for better visibility -->
  <rect width="32" height="32" rx="6" fill="#dc2626"/>
  
  <!-- Chef hat main body -->
  <path d="M8 18.5A5.3 5.3 0 0 1 9.87 8a6.8 6.8 0 0 1 1.4-2.05 6.6 6.6 0 0 1 9.46 0A6.8 6.8 0 0 1 22.13 8 5.3 5.3 0 0 1 24 18.5V28H8Z" fill="white"/>
  
  <!-- Chef hat band -->
  <rect x="8" y="22" width="16" height="1.5" fill="#dc2626"/>
  
  <!-- Chef hat pleats for detail -->
  <line x1="11" y1="12" x2="11" y2="20" stroke="#f3f4f6" stroke-width="0.5"/>
  <line x1="14" y1="10" x2="14" y2="20" stroke="#f3f4f6" stroke-width="0.5"/>
  <line x1="17" y1="11" x2="17" y2="20" stroke="#f3f4f6" stroke-width="0.5"/>
  <line x1="20" y1="13" x2="20" y2="20" stroke="#f3f4f6" stroke-width="0.5"/>
</svg> 